<?xml version="1.0" encoding="utf-8"?>
<!-- Generator: Adobe Illustrator 24.1.1, SVG Export Plug-In . SVG Version: 6.00 Build 0)  -->
<svg version="1.1" id="Layer_1" xmlns="http://www.w3.org/2000/svg" xmlns:xlink="http://www.w3.org/1999/xlink" x="0px" y="0px"
	 viewBox="0 0 512 512" style="enable-background:new 0 0 512 512;" xml:space="preserve">
<style type="text/css">
	.st0{fill:#333333;}
</style>
<g id="XMLID_2_">
	<path id="XMLID_10_" class="st0" d="M455.7,108.4c5.1,5.1,10.2,12.8,13.7,21.3c3.4,9.4,6,17.9,6,24.7v329.4
		c0,7.7-2.6,14.5-7.7,19.6S455.7,512,448,512H64c-7.7,0-14.5-2.6-19.6-7.7c-5.1-5.1-7.7-11.9-7.7-19.6V27.3c0-7.7,2.6-14.5,7.7-19.6
		C49.5,2.6,56.3,0,64,0h256c7.7,0,16.2,1.7,24.7,6c9.4,3.4,16.2,8.5,21.3,13.7L455.7,108.4z M329.4,39.3v107.5h107.5
		c-1.7-5.1-4.3-9.4-6-11.9l-90.5-89.6C338.8,42.7,334.5,41,329.4,39.3z M438.6,475.3V182.6H320c-7.7,0-14.5-2.6-19.6-7.7
		c-5.1-5.1-7.7-11.9-7.7-19.6V36.7H73.4v438.6H438.6z M174.1,219.3c1.7-1.7,3.4-3.4,6-3.4s5.1,0,6.8,1.7l14.5,11.1
		c1.7,1.7,3.4,3.4,3.4,6s0,5.1-1.7,6.8L151,310.6l52.1,69.1c1.7,1.7,2.6,4.3,1.7,6.8c0,2.6-1.7,4.3-3.4,6l-14.5,11.1
		c-1.7,1.7-4.3,2.6-6.8,1.7c-2.6,0-4.3-1.7-6-3.4l-64.9-86.2c-2.6-3.4-2.6-6.8,0-11.1L174.1,219.3z M402.8,305.5
		c2.6,3.4,2.6,6.8,0,11.1l-64.9,86.2c-1.7,1.7-3.4,3.4-6,3.4s-5.1,0-6.8-1.7l-14.5-11.1c-1.7-1.7-3.4-3.4-3.4-6s0-5.1,1.7-6.8
		l52.1-69.1l-52.1-69.1c-1.7-3.4-1.7-5.1-1.7-7.7s1.7-4.3,3.4-6l14.5-11.1c1.7-1.7,4.3-2.6,6.8-1.7c2.6,0,4.3,1.7,6,3.4L402.8,305.5
		z M226.1,436.9c-2.6,0-4.3-1.7-6-3.4c-1.7-1.7-1.7-4.3-1.7-6.8l39.3-237.2c0-2.6,1.7-4.3,3.4-6c1.7-1.7,4.3-1.7,6.8-1.7l17.9,2.6
		c2.6,0,4.3,1.7,6,3.4c1.7,1.7,1.7,4.3,1.7,6.8l-39.3,237.2c0,2.6-1.7,4.3-3.4,6c-1.7,1.7-4.3,1.7-6.8,1.7L226.1,436.9z"/>
</g>
</svg>
