<svg xmlns="http://www.w3.org/2000/svg" fill="none" viewBox="0 0 96 96" id="Aws-Glue--Streamline-Svg-Logos" height="24" width="24">
  <desc>
    Aws Glue Streamline Icon: https://streamlinehq.com
  </desc>
  <path fill="url(#a)" d="M95 1H1v94h94V1Z"></path>
  <path fill="#ffffff" d="M39.7752 28.0249h2.35v-2.35h-2.35v2.35Zm-2.35 1.175v-4.7c0-.6486.5252-1.175 1.175-1.175h4.7c.6498 0 1.175.5264 1.175 1.175v4.7c0 .6486-.5252 1.175-1.175 1.175h-4.7c-.6498 0-1.175-.5264-1.175-1.175Zm11.75-8.225h2.35v-2.35h-2.35v2.35Zm-2.35 1.175v-4.7c0-.6486.5252-1.175 1.175-1.175h4.7c.6498 0 1.175.5264 1.175 1.175v4.7c0 .6486-.5252 1.175-1.175 1.175h-4.7c-.6498 0-1.175-.5264-1.175-1.175Zm4.7 10.575h2.35v-2.35h-2.35v2.35Zm-1.175-4.7h4.7c.6498 0 1.175.5264 1.175 1.175v4.7c0 .6486-.5252 1.175-1.175 1.175h-4.7c-.6498 0-1.175-.5264-1.175-1.175v-4.7c0-.6486.5252-1.175 1.175-1.175Zm-2.35 12.3375c-2.0692 0-9.5716-.0881-14.4513-1.2878l11.9203 18.8729c.1175.188.181.4053.181.6274v2.6755c1.6497.4782 3.1737.4829 4.7.0188v-2.6943c0-.2221.0634-.4394.1809-.6274l11.9204-18.8729c-4.8798 1.1997-12.3821 1.2878-14.4513 1.2878ZM29.4986 37.063c-.1868-.2726-.2984-.5663-.2984-.8871 0-3.3429 11.0262-3.9609 17.5991-4.0326l.0247 2.35c-8.0746.0881-13.0084 1.0093-14.7474 1.6955 1.8447.7708 7.2791 1.8236 15.9236 1.8236 8.6221 0 14.0495-1.0469 15.9083-1.8165-.759-.3067-2.3312-.7603-5.4755-1.1445l.2844-2.3324c7.1228.8695 8.0828 2.2349 8.0828 3.4569 0 .3208-.1116.6145-.2985.8871L52.7002 58.9157v3.1842c0 .4794-.2914.9118-.7367 1.0904-1.282.5147-2.5698.7708-3.8858.7708-1.3042 0-2.6343-.2526-4.0091-.759-.4606-.1704-.7684-.6099-.7684-1.1022v-3.1842L29.4986 37.063Zm26.6373 33.9869c.1821.4394.0811.9447-.255 1.2807l-7.05 7.05c-.2291.2292-.5299.3443-.8307.3443-.3008 0-.6016-.1151-.8307-.3443l-7.05-7.05c-.3361-.336-.4371-.8413-.255-1.2807.1809-.4383.611-.725 1.0857-.725h3.525v-3.525h2.35v4.7c0 .6486-.5252 1.175-1.175 1.175h-1.8636l4.2136 4.2136 4.2135-4.2136h-1.8635c-.6498 0-1.175-.5264-1.175-1.175v-4.7h2.35v3.525h3.525c.4747 0 .9047.2867 1.0857.725Z"></path>
  <defs>
    <linearGradient id="a" x1="1" x2="9401" y1="9401" y2="1" gradientUnits="userSpaceOnUse">
      <stop stop-color="#4d27a8"></stop>
      <stop offset="1" stop-color="#a166ff"></stop>
    </linearGradient>
  </defs>
</svg>