<svg width="513" height="513" viewBox="0 0 513 513" fill="none" xmlns="http://www.w3.org/2000/svg">
<path fill-rule="evenodd" clip-rule="evenodd" d="M163.298 106.189L85.5008 237.012C79.0898 247.793 79.0357 261.204 85.3594 272.036L163.413 405.736C167.123 412.091 173.929 415.999 181.287 415.999H313.43L222.538 265.203C218.544 258.577 218.579 250.277 222.628 243.685L257.697 186.59L257.699 186.588L313.243 96.0704H181.088C173.789 96.0704 167.029 99.9151 163.298 106.189Z" fill="#6A43E9"/>
<path fill-rule="evenodd" clip-rule="evenodd" d="M291.315 299.735L277.914 321.582L328.825 406.056C332.57 412.271 339.296 416.07 346.552 416.07H354.059C361.449 416.07 368.278 412.131 371.977 405.734L431.093 303.504C433.753 298.905 430.433 293.152 425.12 293.152H303.077C298.278 293.152 293.824 295.645 291.315 299.735Z" fill="#4F2CC1"/>
<path fill-rule="evenodd" clip-rule="evenodd" d="M277.02 190.265L291.434 214.461C293.922 218.639 298.426 221.198 303.288 221.198H425.395C430.688 221.198 434.01 215.483 431.39 210.884L371.936 106.523C368.254 100.061 361.389 96.0704 353.952 96.0704H346.414C339.217 96.0704 332.538 99.8081 328.773 105.941L277.02 190.265Z" fill="#4F2CC1"/>
</svg>
